<?xml version="1.0" standalone="no"?>
<!DOCTYPE svg PUBLIC "-//W3C//DTD SVG 20010904//EN"
 "http://www.w3.org/TR/2001/REC-SVG-20010904/DTD/svg10.dtd">
<svg version="1.0" xmlns="http://www.w3.org/2000/svg"
 width="7730.000000pt" height="7730.000000pt" viewBox="0 0 7730.000000 7730.000000"
 preserveAspectRatio="xMidYMid meet">

<g transform="translate(0.000000,7730.000000) scale(0.100000,-0.100000)"
fill="#000000" stroke="none">
<path d="M48884 60286 c-91 -17 -175 -42 -246 -72 -43 -18 -76 -24 -130 -24
-436 0 -837 -244 -1027 -626 -85 -170 -114 -298 -114 -494 l0 -145 512 -2645
c281 -1455 560 -2890 618 -3190 l106 -545 1 -170 c0 -122 -5 -197 -17 -265
-36 -193 -127 -410 -239 -572 -65 -95 -1657 -1898 -1748 -1980 -84 -76 -214
-165 -317 -217 -69 -34 -92 -41 -142 -41 -92 0 -276 35 -390 75 -65 23 -421
195 -960 465 -1274 637 -1407 707 -1517 790 -234 179 -412 429 -504 709 -20
61 -232 1141 -635 3229 -332 1725 -616 3182 -630 3237 -123 484 -574 825
-1090 825 -132 0 -250 -21 -372 -66 -85 -32 -115 -38 -226 -45 -198 -12 -328
-44 -471 -116 -178 -90 -282 -186 -462 -426 -883 -1178 -1446 -2645 -1588
-4132 -38 -393 -49 -968 -26 -1327 74 -1164 371 -2281 865 -3253 1040 -2048
2927 -3458 5240 -3915 481 -95 1014 -150 1462 -150 212 0 213 0 218 -22 4 -20
474 -3184 522 -3518 9 -63 18 -117 20 -119 2 -2 58 50 126 116 188 184 348
293 496 337 69 20 195 21 252 1 151 -53 260 -201 306 -416 24 -113 24 -413 -1
-584 -34 -233 -100 -511 -183 -770 -34 -105 -46 -126 -246 -430 -115 -176
-237 -362 -270 -413 l-60 -93 -4 -267 -5 -267 186 -1250 c103 -687 218 -1459
256 -1715 38 -256 749 -5039 1579 -10630 l1511 -10165 120 -625 c67 -344 130
-665 141 -715 208 -939 705 -1796 1329 -2291 223 -177 506 -330 737 -397 l51
-15 80 96 c422 517 1072 994 1782 1309 220 98 707 273 759 273 7 0 11 -24 11
-70 0 -83 11 -98 104 -140 303 -137 1197 -214 1290 -111 9 10 29 84 46 172 17
87 52 220 80 304 117 345 170 620 204 1055 14 170 32 268 225 1230 1279 6373
2242 10281 2802 11370 27 53 55 105 63 115 16 22 16 40 -4 -2555 -37 -4665
-141 -9140 -255 -10945 -8 -126 -17 -304 -20 -395 -3 -91 -8 -177 -11 -192 -9
-45 53 -83 242 -148 141 -49 343 -100 521 -131 105 -19 165 -23 333 -24 184 0
212 2 275 22 39 12 84 35 102 50 31 28 32 31 68 248 446 2742 967 6659 1280
9625 311 2953 505 5757 509 7355 l1 440 -33 157 c-66 317 -209 873 -409 1593
l-117 419 12 106 c69 613 296 1582 656 2795 36 121 72 243 80 270 21 72 190
616 241 775 24 74 111 345 194 601 89 274 151 483 151 505 0 22 -11 59 -24 85
-14 25 -438 669 -943 1430 -506 761 -922 1390 -926 1396 -5 7 257 774 608
1781 338 973 615 1776 615 1785 0 22 -16 26 -461 117 -423 87 -437 88 -460 38
-5 -13 -250 -831 -543 -1818 l-534 -1795 -1056 -3 c-581 -1 -1056 1 -1056 5 0
28 -301 3693 -305 3710 -3 13 -15 25 -28 28 -12 3 -233 -14 -491 -38 -529 -49
-502 -42 -491 -127 3 -25 129 -826 280 -1780 151 -954 276 -1750 277 -1769 3
-31 0 -35 -27 -42 -17 -5 -45 -23 -62 -41 -24 -26 -954 -1592 -1623 -2733
-133 -227 -135 -181 28 -681 406 -1245 588 -1833 757 -2450 221 -803 345
-1432 361 -1824 6 -134 6 -136 -40 -335 -103 -442 -233 -1036 -366 -1680 -661
-3200 -1220 -6702 -1580 -9898 -22 -197 -40 -365 -41 -375 0 -9 -9 15 -19 53
-11 39 -865 3625 -1900 7970 -1034 4345 -1905 8001 -1935 8125 -186 774 -2305
9681 -2305 9690 0 6 8 13 18 17 137 49 617 277 837 398 703 386 1295 833 1846
1391 561 570 992 1170 1344 1874 434 867 675 1754 757 2790 27 339 14 969 -28
1365 -203 1935 -1051 3729 -2404 5086 -457 458 -917 826 -1456 1165 -323 202
-461 253 -709 260 -91 2 -165 -1 -211 -10z m3603 -42262 c480 -136 954 -634
1252 -1314 323 -740 429 -1603 285 -2341 -113 -583 -399 -1052 -753 -1234 -70
-36 -256 7 -456 104 -549 268 -1031 981 -1255 1856 -45 176 -81 364 -107 560
-14 113 -18 206 -18 485 1 365 11 476 66 725 120 541 372 956 699 1152 73 43
77 44 137 38 34 -3 102 -17 150 -31z"/>
<path d="M59850 50445 c-439 -62 -817 -254 -1144 -580 -97 -96 -237 -261 -293
-346 l-25 -38 -41 15 c-59 21 -672 31 -887 15 -263 -20 -421 -55 -497 -110
-89 -64 -78 -136 36 -244 349 -329 1791 -848 3344 -1202 134 -31 135 -32 93
-120 -13 -27 -224 -372 -470 -765 -451 -721 -473 -752 -574 -822 -109 -75
-208 -110 -314 -109 -141 0 -239 72 -383 281 -252 368 -440 574 -606 664 -105
58 -232 41 -321 -41 -43 -41 -67 -83 -198 -347 -204 -413 -330 -703 -444
-1018 -36 -101 -46 -141 -46 -190 1 -103 55 -194 143 -240 61 -31 388 -161
584 -232 459 -165 1003 -304 1154 -293 125 8 136 18 426 399 242 317 530 681
707 896 101 122 169 215 205 280 171 311 337 487 499 527 52 14 75 14 133 5
193 -29 346 -129 420 -275 l34 -66 50 6 c95 12 209 81 317 192 100 103 168
245 168 352 0 41 8 60 65 147 134 202 264 499 314 716 154 664 -53 1349 -564
1863 -344 346 -776 577 -1250 666 -142 27 -491 35 -635 14z"/>
<path d="M63872 41823 l-33 -4 8 -142 c14 -251 8 -950 -11 -1187 -56 -723
-179 -1358 -357 -1852 -60 -165 -62 -150 18 -181 38 -15 71 -27 75 -27 12 0
157 456 201 635 109 435 173 856 219 1430 15 182 18 1158 5 1268 l-9 67 -41
-2 c-23 0 -57 -3 -75 -5z"/>
<path d="M22950 40383 c-1098 -10 -2990 -44 -3850 -68 -107 -3 -433 -12 -725
-20 -531 -15 -1039 -30 -1320 -40 -82 -3 -343 -12 -580 -20 -236 -8 -486 -17
-555 -20 -216 -8 -383 -15 -770 -30 -563 -22 -711 -28 -970 -40 -63 -3 -414
-19 -780 -35 -1144 -52 -1241 -58 -1337 -79 -470 -103 -813 -523 -813 -995 0
-44 207 -3141 460 -6881 462 -6830 467 -6902 475 -6985 2 -25 7 -97 10 -160 4
-63 8 -131 10 -150 2 -19 6 -89 10 -155 4 -66 8 -131 10 -145 2 -14 6 -72 10
-130 3 -58 8 -134 10 -170 3 -36 7 -103 10 -150 7 -103 14 -206 20 -280 2 -30
9 -127 15 -215 12 -190 38 -572 45 -670 3 -38 21 -304 40 -590 19 -286 37
-551 40 -590 3 -38 21 -304 40 -590 19 -286 37 -551 39 -590 5 -64 88 -1299
101 -1495 3 -47 8 -110 10 -140 3 -30 106 -1554 230 -3387 124 -1833 231
-3365 239 -3405 39 -203 134 -379 285 -528 158 -158 348 -255 561 -289 44 -8
1185 -11 3548 -11 l3482 0 0 -490 0 -490 11789 0 11789 0 6 2323 c4 1277 6
4527 4 7222 l-3 4900 -23 64 c-53 148 -145 240 -293 293 l-64 23 -4322 0
c-2377 0 -4324 2 -4327 5 -2 3 159 1918 359 4255 200 2338 407 4763 460 5390
53 627 98 1154 100 1170 4 31 8 75 25 285 5 69 60 703 120 1410 61 706 110
1321 110 1366 0 477 -349 900 -823 998 -105 22 -1457 104 -2487 151 -63 3
-151 7 -195 10 -293 17 -1187 54 -1960 80 -477 16 -1351 41 -1775 50 -146 3
-346 8 -445 10 -247 6 -909 16 -1580 24 -507 7 -3894 10 -4465 4z m-4965
-1122 c50 -22 91 -69 107 -122 9 -33 4 -275 -26 -1257 -21 -670 -42 -1234 -47
-1255 -12 -46 -60 -102 -110 -128 -38 -19 -83 -19 -2529 -19 -2446 0 -2491 0
-2529 19 -49 26 -97 81 -111 128 -10 38 -170 2202 -171 2320 -1 110 62 192
163 211 51 10 4547 118 4993 120 194 1 225 -1 260 -17z m3297 -55 c540 -125
945 -545 1055 -1093 26 -133 24 -395 -6 -533 -117 -547 -530 -958 -1084 -1077
-104 -23 -416 -25 -522 -4 -570 112 -1013 564 -1109 1130 -20 121 -21 340 -1
457 75 436 352 811 745 1009 101 51 287 111 400 129 142 23 382 15 522 -18z
m3950 0 c796 -185 1257 -992 1011 -1771 -148 -467 -542 -822 -1033 -930 -114
-25 -364 -31 -485 -12 -207 33 -419 116 -582 229 -176 122 -340 308 -438 499
-105 204 -144 355 -151 589 -9 257 28 435 136 657 199 408 571 681 1035 759
125 21 373 11 507 -20z m9325 -720 c66 -31 105 -86 111 -159 2 -29 -31 -419
-73 -867 -72 -769 -78 -818 -102 -868 -17 -36 -38 -62 -66 -80 l-41 -27 -3192
0 -3192 0 -44 30 c-26 18 -52 48 -66 77 -22 44 -25 79 -70 833 -50 852 -50
820 4 891 13 18 44 42 69 54 l45 22 3103 58 c1706 31 3183 58 3282 59 171 1
183 0 232 -23z m588 -2615 c141 -65 156 -264 26 -356 l-43 -30 -11391 -3
c-10456 -2 -11396 -1 -11435 14 -85 32 -141 125 -129 215 8 61 54 128 106 156
l44 23 11391 0 c11053 0 11392 -1 11431 -19z m-11030 -3491 c1729 -93 3309
-741 4605 -1890 173 -153 505 -487 651 -655 1013 -1165 1642 -2589 1808 -4100
19 -173 41 -449 41 -521 l0 -34 -659 0 -658 0 -7 118 c-105 1821 -986 3467
-2439 4556 -1382 1036 -3137 1433 -4842 1095 -793 -157 -1552 -474 -2220 -927
-792 -537 -1452 -1258 -1917 -2092 -613 -1099 -868 -2377 -727 -3635 131
-1171 581 -2243 1329 -3170 263 -325 609 -667 950 -937 231 -183 523 -379 779
-524 l141 -79 0 -824 c0 -780 -1 -823 -17 -817 -210 79 -727 333 -978 480
-1853 1088 -3154 2911 -3569 5001 -202 1016 -192 2084 30 3090 536 2433 2259
4448 4584 5360 980 385 2067 561 3115 505z m-1217 -3012 c4 -31 6 -31 -138
-47 -419 -47 -866 -338 -1420 -926 -867 -919 -1380 -1947 -1532 -3069 -19
-138 -22 -209 -23 -501 0 -368 7 -468 55 -750 136 -795 477 -1492 994 -2032
l116 -121 0 -206 c0 -113 -3 -206 -7 -206 -5 0 -69 54 -144 119 -757 664
-1232 1663 -1320 2774 -17 218 -7 679 20 884 138 1061 598 2031 1381 2908 212
238 565 564 805 746 426 321 758 461 1090 456 l120 -2 3 -27z m2182 -2073
c597 -79 1101 -312 1560 -720 366 -326 675 -806 819 -1273 17 -55 31 -104 31
-111 0 -8 -39 -11 -141 -9 l-140 3 -43 125 c-90 265 -202 476 -381 715 -388
520 -948 880 -1563 1005 -243 49 -566 70 -794 50 -883 -76 -1695 -529 -2140
-1194 -133 -199 -248 -462 -288 -658 l-11 -58 -96 0 -95 0 7 43 c117 747 732
1458 1587 1836 320 142 701 238 1023 257 55 4 102 9 105 12 10 10 449 -8 560
-23z m13558 -3938 c23 -15 51 -45 62 -67 20 -39 20 -55 20 -1160 l0 -1120 -29
32 -29 33 -312 0 -312 0 -29 -33 -29 -32 0 -3826 0 -3826 34 -34 34 -34 302 0
302 0 34 34 34 34 -2 -872 -3 -873 -29 -37 c-16 -21 -47 -47 -70 -57 -40 -18
-258 -19 -8431 -19 -8118 0 -8391 1 -8430 19 -50 22 -92 71 -100 114 -3 18 -4
2645 -3 5838 l3 5806 28 36 c30 40 55 56 102 68 17 4 3806 6 8421 5 l8390 -1
42 -28z m-17688 -9307 l0 -130 -3484 2 -3485 3 -31 30 c-61 58 -61 132 0 177
66 48 -80 46 3578 47 l3422 1 0 -130z"/>
</g>
</svg>
