<?xml version="1.0" standalone="no"?>
<!DOCTYPE svg PUBLIC "-//W3C//DTD SVG 20010904//EN"
 "http://www.w3.org/TR/2001/REC-SVG-20010904/DTD/svg10.dtd">
<svg version="1.0" xmlns="http://www.w3.org/2000/svg"
 width="2000.000000pt" height="2000.000000pt" viewBox="0 0 2000.000000 2000.000000"
 preserveAspectRatio="xMidYMid meet">

<g transform="translate(0.000000,2000.000000) scale(0.100000,-0.100000)"
fill="#000000" stroke="none">
<path d="M16055 17418 c-3 -7 -11 -40 -18 -72 l-13 -60 -60 -12 c-65 -13 -57
-18 -118 60 -15 20 -36 36 -45 36 -19 0 -225 -166 -229 -185 -2 -7 17 -38 42
-68 l45 -55 -27 -50 c-29 -56 -44 -62 -139 -62 l-54 0 3 -152 3 -153 80 -3 80
-3 18 -44 19 -44 -52 -63 -51 -63 44 -40 c85 -79 179 -155 191 -155 7 0 34 25
60 55 26 30 51 53 56 50 5 -3 42 -14 81 -24 l72 -18 21 -68 c12 -38 27 -70 33
-72 7 -3 65 12 130 32 65 20 126 39 136 41 22 7 22 33 0 102 -17 52 -17 54 2
65 25 13 96 84 115 115 l15 23 69 -16 c41 -10 73 -12 78 -7 13 13 68 286 59
295 -4 4 -35 13 -69 19 -60 11 -61 12 -67 50 -4 22 -5 41 -3 42 1 2 24 17 49
34 77 52 77 45 -11 178 -44 65 -86 120 -94 122 -8 2 -37 -13 -65 -33 l-51 -37
-29 21 -29 21 16 70 c8 39 12 73 9 77 -7 6 -262 63 -285 63 -7 0 -15 -6 -17
-12z m165 -65 c47 -9 86 -18 88 -19 2 -1 -4 -32 -13 -68 -8 -37 -15 -68 -15
-70 0 -5 98 -66 107 -66 5 0 30 14 56 30 26 17 50 30 52 30 3 0 31 -40 64 -89
l60 -89 -55 -36 -55 -37 7 -57 c9 -80 16 -89 74 -97 27 -4 53 -11 56 -17 10
-16 -29 -200 -44 -205 -7 -3 -39 0 -70 6 -54 11 -58 11 -72 -10 -21 -32 -111
-123 -139 -142 -24 -16 -24 -17 -11 -74 8 -32 14 -62 15 -67 0 -9 -57 -31
-157 -61 l-48 -14 -20 67 c-23 73 -31 82 -76 82 -17 0 -60 9 -95 21 l-64 21
-47 -52 -47 -53 -70 57 c-104 85 -101 77 -47 146 l47 60 -24 42 c-14 24 -28
56 -31 71 -7 28 -8 28 -69 27 -34 -1 -68 -1 -74 -1 -10 1 -13 30 -13 111 l0
110 74 0 74 0 36 76 c20 42 36 79 36 83 0 3 -12 20 -26 36 -34 38 -58 75 -53
79 2 2 40 33 85 69 l80 65 45 -55 c40 -49 47 -53 74 -47 17 3 57 12 89 18 33
7 61 16 62 21 2 6 8 36 14 68 11 53 14 58 33 53 12 -3 60 -13 107 -23z"/>
<path d="M15998 17076 c-220 -61 -287 -347 -117 -500 145 -131 373 -85 461 93
34 69 32 188 -4 256 -14 28 -41 64 -60 82 -67 65 -189 95 -280 69z m177 -60
c59 -27 118 -88 135 -141 34 -104 -11 -232 -104 -289 -70 -44 -165 -49 -239
-12 -186 91 -181 353 8 442 66 31 134 31 200 0z"/>
<path d="M13875 17068 c-3 -7 -13 -55 -22 -107 l-18 -94 -70 -18 c-38 -9 -79
-20 -91 -24 -16 -5 -33 9 -90 74 -38 44 -76 80 -85 80 -20 1 -319 -255 -319
-273 0 -7 29 -47 65 -88 36 -42 65 -81 65 -86 0 -6 -13 -37 -30 -70 -16 -34
-30 -68 -30 -76 0 -9 -6 -17 -12 -17 -7 -1 -62 -4 -123 -8 l-110 -6 3 -155 c1
-85 5 -184 8 -219 l6 -64 112 6 112 6 29 -66 c17 -37 31 -70 33 -73 1 -4 -29
-46 -68 -95 -38 -48 -70 -91 -70 -96 0 -16 329 -271 341 -263 8 4 112 130 130
157 4 5 32 1 67 -11 33 -12 89 -24 125 -28 l65 -7 36 -105 c19 -57 37 -107 40
-109 3 -3 95 25 205 62 160 53 201 70 201 84 0 10 -13 56 -29 102 l-29 84 68
63 c55 50 101 104 146 170 1 2 50 -5 108 -14 58 -10 107 -16 109 -14 9 9 78
410 73 419 -3 5 -48 16 -100 26 l-95 17 -11 54 c-7 31 -10 61 -7 68 3 7 37 34
75 60 39 26 76 53 82 61 8 9 -19 54 -108 181 -65 93 -125 170 -133 172 -8 1
-50 -22 -92 -53 l-77 -55 -43 27 c-23 15 -44 28 -46 30 -2 1 4 50 14 108 10
58 15 108 11 112 -3 4 -85 21 -180 39 -96 18 -188 35 -205 39 -22 5 -33 3 -36
-7z m222 -75 c119 -21 153 -31 153 -43 -1 -8 -7 -44 -15 -80 -24 -109 -23
-111 51 -158 36 -23 70 -42 76 -42 5 0 41 23 79 50 38 28 72 50 76 50 5 0 28
-30 53 -65 25 -36 68 -98 97 -137 l51 -72 -79 -58 c-85 -63 -86 -64 -68 -150
6 -29 13 -63 15 -74 3 -19 17 -24 99 -39 96 -17 96 -17 90 -44 -3 -14 -16 -88
-30 -165 -13 -76 -27 -141 -29 -144 -3 -2 -45 3 -93 12 -48 9 -93 16 -99 16
-6 0 -28 -26 -49 -57 -44 -65 -112 -135 -168 -173 -20 -14 -37 -30 -37 -36 0
-5 13 -50 30 -99 16 -49 29 -89 27 -90 -4 -4 -312 -105 -319 -105 -3 0 -21 43
-38 95 -17 52 -37 98 -43 102 -6 4 -32 8 -57 10 -53 3 -132 21 -177 40 -54 22
-65 17 -131 -67 l-62 -80 -128 101 c-70 56 -131 105 -135 109 -4 4 22 43 58
88 36 45 65 88 65 96 0 8 -16 47 -35 87 -19 41 -35 79 -35 86 0 14 -5 15 -136
13 l-92 -1 -7 166 c-4 91 -5 169 -1 172 3 3 54 8 112 11 103 5 106 5 116 31 6
14 28 63 50 109 l39 83 -28 33 c-15 19 -46 55 -68 81 l-40 48 45 39 c134 117
208 178 216 178 5 -1 34 -32 64 -70 30 -38 63 -72 73 -75 9 -4 34 -1 55 6 20
7 71 20 112 28 l74 16 9 45 c25 139 28 150 45 150 9 0 86 -12 169 -27z"/>
<path d="M13813 16561 c-108 -28 -216 -119 -270 -229 -26 -52 -28 -66 -28
-172 0 -104 3 -121 27 -173 79 -168 266 -269 445 -239 178 30 315 168 345 348
29 172 -69 357 -230 436 -58 29 -76 33 -161 35 -53 1 -111 -2 -128 -6z m275
-77 c54 -26 83 -48 114 -87 66 -84 81 -128 82 -237 1 -88 -1 -100 -31 -161
-39 -79 -102 -140 -181 -177 -49 -23 -70 -27 -152 -27 -82 0 -103 4 -153 27
-67 32 -145 108 -176 172 -72 147 -40 319 79 430 121 113 269 134 418 60z"/>
<path d="M16215 15555 c-87 -29 -160 -56 -162 -61 -1 -5 10 -49 26 -99 l28
-90 -29 -26 -29 -26 -62 33 c-34 18 -69 34 -77 34 -17 0 -184 -295 -177 -313
2 -7 39 -30 81 -52 75 -39 76 -41 74 -75 -3 -34 -4 -35 -73 -50 -57 -13 -71
-19 -73 -36 -3 -20 64 -333 73 -342 2 -3 46 5 96 17 96 22 112 20 124 -18 3
-10 -8 -48 -25 -86 -16 -37 -30 -72 -30 -79 0 -7 12 -19 28 -26 82 -38 292
-130 297 -130 3 0 19 28 35 61 l29 61 119 2 120 1 33 -62 c19 -35 41 -63 49
-63 19 0 301 162 307 176 2 6 -12 39 -32 73 -35 59 -36 63 -21 84 53 72 70
101 91 153 13 32 32 61 42 65 10 4 45 8 79 8 96 1 95 -2 79 193 -7 91 -16 171
-19 177 -4 6 -37 8 -91 4 -84 -6 -84 -6 -94 20 -5 14 -23 46 -39 72 l-30 48
49 75 c27 41 46 78 44 83 -9 13 -283 199 -294 199 -6 0 -32 -32 -58 -71 -46
-70 -48 -71 -83 -65 -19 4 -64 9 -100 13 l-65 6 -25 81 c-16 50 -31 82 -40 83
-8 1 -87 -22 -175 -52z m185 -82 l25 -78 85 -7 c47 -3 104 -9 126 -13 l42 -7
42 63 c24 35 44 66 46 68 2 2 55 -32 118 -75 73 -49 113 -81 108 -88 -5 -6
-26 -38 -47 -70 l-38 -60 22 -35 c12 -20 36 -65 53 -100 l31 -64 82 7 82 7 12
-137 c6 -75 10 -138 8 -140 -2 -2 -41 -7 -87 -11 l-84 -8 -26 -65 c-31 -81
-44 -105 -86 -157 -19 -23 -34 -48 -34 -55 0 -8 14 -39 30 -70 23 -43 27 -58
18 -65 -25 -19 -214 -123 -224 -123 -5 0 -23 26 -40 58 -28 51 -35 57 -60 55
-35 -3 -200 -3 -234 0 -21 2 -29 -6 -52 -53 -15 -30 -31 -55 -37 -55 -22 0
-241 101 -241 111 0 6 11 37 25 68 32 72 31 83 -8 129 l-33 38 -87 -19 -87
-19 -11 40 c-14 54 -49 210 -49 223 0 6 28 17 63 24 34 7 68 17 75 23 7 6 12
33 12 68 l0 58 -75 42 c-41 22 -75 43 -75 45 0 3 30 59 66 124 l65 120 68 -38
69 -37 45 40 c25 22 47 45 50 52 3 6 -5 48 -19 93 -14 45 -23 85 -19 88 8 8
225 80 245 81 10 1 23 -24 40 -76z"/>
<path d="M16434 15189 c-115 -15 -210 -85 -264 -195 -31 -63 -32 -70 -28 -163
3 -79 9 -105 30 -146 109 -209 392 -255 557 -92 240 237 40 641 -295 596z
m172 -68 c62 -28 118 -82 152 -146 37 -70 38 -187 3 -259 -31 -63 -90 -122
-150 -149 -65 -30 -188 -30 -251 -1 -59 28 -121 90 -151 150 -33 69 -34 190 0
254 80 154 247 217 397 151z"/>
<path d="M6986 14145 c-254 -42 -444 -140 -608 -313 -141 -150 -245 -350 -293
-564 l-17 -77 -145 -88 c-80 -48 -147 -93 -150 -100 -3 -7 20 -60 51 -117 31
-58 56 -107 56 -110 0 -3 -52 -37 -115 -76 -63 -40 -115 -79 -115 -87 0 -8 35
-74 77 -146 42 -73 104 -183 139 -245 34 -63 73 -125 85 -139 34 -36 88 -61
148 -69 l52 -7 -8 -46 c-11 -70 -6 -230 10 -286 8 -27 20 -71 27 -96 13 -44
11 -51 -43 -220 l-56 -174 -147 3 c-198 5 -574 -15 -653 -33 -173 -41 -368
-200 -449 -365 -59 -121 -76 -193 -75 -330 0 -91 6 -135 27 -214 l26 -100 -76
-210 c-42 -116 -96 -265 -119 -331 -73 -202 -374 -1042 -422 -1177 l-45 -126
-96 35 c-54 19 -109 40 -125 45 -37 14 -57 7 -162 -53 -177 -101 -203 -136
-269 -367 -47 -164 -61 -263 -46 -327 11 -47 9 -62 -48 -290 -76 -303 -92
-387 -92 -489 1 -105 21 -152 85 -196 53 -37 257 -132 544 -255 106 -46 197
-87 201 -92 4 -4 31 -73 60 -153 67 -185 375 -960 564 -1419 80 -195 145 -356
143 -358 -8 -8 -1819 220 -1957 247 -387 74 -541 99 -572 92 -41 -8 -197 -288
-282 -506 -118 -297 -186 -679 -186 -1036 0 -400 95 -575 320 -588 63 -4 83
-1 116 16 124 63 198 207 364 702 60 177 147 411 159 423 4 4 41 0 82 -8 449
-95 1476 -262 1979 -322 210 -25 549 -25 650 1 379 94 538 386 430 791 -78
295 -336 1169 -586 1984 -63 206 -111 377 -107 381 4 3 70 21 145 39 l137 33
443 -177 c746 -299 1309 -537 1461 -617 41 -22 56 -36 53 -47 -3 -9 -23 -81
-46 -161 -66 -233 -367 -1214 -420 -1370 -10 -30 -39 -120 -64 -200 -25 -80
-88 -282 -141 -450 -215 -681 -275 -932 -232 -969 24 -19 140 -40 262 -46 213
-11 304 -12 665 -3 466 10 868 42 947 74 43 17 56 69 51 194 -3 80 -9 104 -33
154 -31 62 -87 115 -148 141 -49 20 -238 65 -492 116 -115 24 -212 44 -213 45
-2 1 38 121 88 266 83 234 288 848 403 1203 l42 130 5 -620 5 -620 28 -57 c50
-102 149 -164 277 -175 l72 -6 -2 -86 c-3 -126 -2 -138 16 -155 13 -14 54 -16
294 -16 336 0 310 -13 310 152 l0 108 2174 0 2173 0 5 -68 c6 -78 24 -119 74
-164 79 -73 -104 -67 2190 -68 2279 0 2122 -5 2197 65 21 19 47 54 57 77 19
42 20 81 20 1498 l0 1455 -24 51 c-40 85 -118 134 -215 134 l-41 0 0 868 0
868 -25 51 c-15 28 -42 64 -62 78 -69 54 -84 55 -635 55 l-508 0 0 148 c0 167
-11 206 -71 256 -67 56 -62 56 -544 56 l-445 0 -2 1493 -3 1492 -22 47 c-32
70 -108 141 -177 167 l-57 21 -3417 -2 -3417 -3 -54 -30 c-68 -37 -125 -102
-151 -171 -20 -54 -20 -73 -20 -1218 l0 -1163 -156 -197 c-93 -117 -165 -198
-178 -201 -16 -4 -466 -45 -490 -45 -6 0 -13 78 -31 360 -40 597 -90 1086
-119 1170 -20 58 -61 114 -128 175 -73 65 -223 173 -350 251 -54 32 -98 64
-98 70 0 6 44 -11 98 -37 290 -144 577 -152 811 -22 81 45 180 144 226 228 95
170 275 629 465 1186 l32 96 202 0 c265 -1 397 23 483 89 172 131 -54 336
-473 429 l-71 16 -7 127 c-15 290 -100 503 -271 677 -124 127 -254 205 -449
270 -211 71 -543 102 -740 70z m651 -90 c222 -61 350 -133 494 -275 92 -92
112 -118 158 -208 72 -141 102 -259 108 -431 l6 -134 -33 7 c-61 12 -334 45
-465 57 -71 6 -340 13 -597 16 l-466 5 15 52 c137 474 322 766 577 912 52 30
89 30 203 -1z m-786 -1031 c723 -162 1242 -336 1374 -458 l43 -41 -9 -50 c-31
-167 -374 -1070 -476 -1253 -153 -275 -481 -379 -832 -265 -225 73 -489 261
-616 438 -132 185 -183 399 -140 583 8 35 13 68 9 73 -3 5 -33 9 -66 9 -115 0
-181 55 -213 175 -23 90 -15 229 21 337 43 130 154 197 258 154 110 -46 175
-198 154 -364 -10 -87 -1 -107 33 -76 49 43 144 186 200 299 67 137 102 240
127 373 9 50 17 92 18 92 1 0 53 -12 115 -26z m8484 -1072 c60 -28 109 -73
138 -127 21 -39 22 -52 25 -432 l3 -393 -3611 0 c-2881 0 -3610 3 -3610 13 0
6 -1 172 -2 367 -3 409 -2 422 71 502 48 53 89 77 156 88 22 4 1557 7 3410 6
l3370 -1 50 -23z m-8938 -699 c41 -41 111 -102 156 -135 52 -38 81 -67 79 -77
-1 -9 -5 -31 -8 -48 -6 -30 -4 -33 17 -33 40 0 52 -14 44 -49 -9 -41 -51 -90
-92 -107 -147 -62 -454 75 -530 236 -32 66 -39 100 -20 100 8 0 17 -9 20 -21
4 -13 12 -20 24 -17 13 2 32 47 77 189 l60 187 49 -75 c28 -42 83 -109 124
-150z m-493 -155 c3 -24 8 -153 12 -288 7 -261 -3 -384 -46 -567 -22 -94 -59
-178 -72 -165 -5 5 -2 21 7 39 24 49 -9 107 -65 115 -19 2 -32 17 -52 56 l-27
53 19 127 c35 223 37 477 4 640 l-6 32 110 0 110 0 6 -42z m1044 -322 c95 -69
89 -48 72 -262 -37 -473 -130 -799 -241 -845 -62 -25 -135 38 -132 116 0 22
24 112 51 200 96 306 128 505 120 741 l-5 143 26 -17 c14 -9 63 -43 109 -76z
m6854 -76 c24 0 27 -4 34 -47 4 -27 12 -51 18 -55 14 -9 13 -463 -2 -481 -5
-7 -12 -39 -16 -72 -4 -33 -16 -91 -27 -130 -11 -38 -23 -81 -25 -95 -3 -14
-9 -34 -14 -45 -5 -11 -16 -42 -26 -70 -10 -27 -24 -59 -31 -70 -7 -11 -13
-25 -13 -33 0 -7 -5 -18 -10 -25 -6 -7 -28 -39 -49 -72 -21 -33 -48 -71 -60
-85 -11 -14 -38 -45 -59 -70 -20 -25 -61 -69 -90 -97 -29 -29 -51 -53 -48 -53
2 0 12 -3 22 -7 13 -5 15 -3 9 8 -8 12 -6 12 8 0 13 -11 15 -17 6 -28 -10 -11
-14 -11 -28 2 -180 169 -420 320 -666 419 -289 117 -662 169 -980 137 -673
-68 -1265 -449 -1605 -1033 -184 -317 -279 -675 -280 -1051 0 -289 51 -538
169 -830 22 -54 36 -95 32 -93 -8 5 4 -127 14 -153 4 -9 11 -38 16 -66 10 -53
42 -167 64 -225 40 -107 146 -338 167 -365 5 -5 23 -32 40 -60 18 -27 35 -52
38 -55 3 -3 21 -29 39 -58 19 -30 48 -70 65 -90 37 -44 180 -187 222 -222 36
-30 47 -54 46 -98 -1 -73 -89 -156 -203 -191 -35 -10 -89 -27 -119 -37 -46
-15 -99 -18 -335 -20 -154 -1 -311 2 -350 7 -38 4 -167 16 -285 24 -220 17
-327 34 -415 65 -27 10 -63 21 -80 25 -38 8 -149 52 -195 76 -19 11 -40 19
-47 19 -6 0 -18 6 -25 13 -29 26 -98 57 -115 51 -13 -4 -15 -3 -5 4 11 7 7 14
-16 31 -17 11 -33 21 -36 21 -3 0 -33 27 -66 61 -33 33 -60 57 -61 52 -1 -4
-2 -17 -3 -27 0 -11 -8 -21 -16 -24 -12 -4 -13 -2 -4 9 6 8 11 23 12 34 0 11
19 90 41 175 52 205 71 316 71 426 0 130 -13 185 -70 301 -41 83 -61 111 -112
157 -34 31 -64 56 -67 56 -4 0 -5 1465 -1 1750 0 9 16 22 35 28 39 15 111 66
270 193 l110 87 100 -19 c132 -25 349 -36 398 -20 40 13 77 53 77 82 0 57
-118 126 -291 170 -46 11 -91 23 -99 26 -16 7 -8 8 250 48 194 30 260 52 293
99 31 43 30 119 -1 164 -13 17 -18 32 -13 32 22 0 51 64 51 110 0 102 -47 131
-205 131 -91 -1 -230 -13 -400 -36 -31 -5 5 17 150 91 105 53 196 101 202 106
19 16 27 75 13 107 -33 80 -154 82 -375 7 -252 -86 -424 -171 -519 -257 l-51
-46 2 600 c1 365 6 603 12 606 5 3 1241 5 2748 4 1506 -2 2750 -3 2765 -3z
m106 -7 c-10 -2 -28 -2 -40 0 -13 2 -5 4 17 4 22 1 32 -1 23 -4z m1124 0
c-206 -2 -539 -2 -740 0 -202 1 -34 2 373 2 407 0 572 -1 367 -2z m458 -3 c0
-5 -2 -10 -4 -10 -3 0 -8 5 -11 10 -3 6 -1 10 4 10 6 0 11 -4 11 -10z m-467
-37 c-210 -2 -556 -2 -770 0 -213 1 -41 2 382 2 424 0 598 -1 388 -2z m440
-14 c-3 -11 -6 -18 -7 -17 -1 2 -7 10 -13 18 -10 13 -8 16 6 17 14 1 17 -4 14
-18z m37 12 c0 -6 -4 -13 -10 -16 -5 -3 -10 1 -10 9 0 9 5 16 10 16 6 0 10 -4
10 -9z m-38 -1278 c2 -319 0 -579 -4 -576 -5 2 -7 410 -6 906 2 496 4 756 5
577 2 -179 4 -587 5 -907z m25 1205 c-3 -8 -6 -5 -6 6 -1 11 2 17 5 13 3 -3 4
-12 1 -19z m-1600 -310 c-2 -13 -4 -5 -4 17 -1 22 1 32 4 23 2 -10 2 -28 0
-40z m12 -123 c0 -5 -4 -3 -9 5 -5 8 -9 22 -9 30 0 16 17 -16 18 -35z m-8132
20 c9 -24 -1 -27 -15 -5 -8 13 -8 20 -2 20 6 0 13 -7 17 -15z m203 -44 c95
-33 288 -82 480 -121 102 -21 185 -39 184 -41 -1 -2 -11 -45 -22 -94 -17 -72
-19 -98 -11 -128 21 -76 104 -138 165 -123 13 4 24 5 25 4 0 -2 9 -82 19 -178
l18 -175 -49 -135 c-27 -74 -54 -147 -60 -161 -9 -22 -18 -27 -62 -33 -29 -3
-88 -6 -132 -6 -78 0 -81 1 -109 33 -23 25 -237 291 -279 345 -7 9 -4 19 12
33 l21 20 -74 142 c-243 468 -267 517 -252 532 8 8 22 35 31 60 10 25 23 45
29 45 7 0 36 -9 66 -19z m3176 -326 c31 -13 35 -18 32 -46 -3 -30 -12 -36
-263 -164 -206 -105 -261 -137 -263 -154 -4 -26 -7 -26 160 -1 331 48 516 58
571 28 47 -25 38 -116 -13 -143 -16 -8 -48 -15 -72 -15 -55 0 -258 -25 -413
-51 -178 -29 -175 -28 -175 -50 0 -24 6 -24 181 5 79 14 204 32 277 40 119 14
138 14 169 1 46 -19 62 -41 63 -83 0 -48 -42 -87 -111 -101 -30 -6 -177 -31
-327 -55 -150 -23 -275 -46 -278 -49 -20 -20 12 -36 103 -52 205 -37 373 -95
418 -145 l20 -22 -24 -19 c-39 -31 -165 -29 -375 6 -77 13 -144 21 -150 18 -6
-4 -71 -54 -144 -112 -237 -189 -287 -209 -448 -177 -45 9 -112 16 -149 16
-36 0 -285 -31 -553 -70 -741 -105 -733 -104 -1027 -105 -249 0 -262 1 -317
23 -72 29 -153 108 -248 241 -96 134 -268 426 -258 436 2 2 33 17 68 34 85 39
228 117 367 201 l112 68 54 -67 c181 -225 257 -318 276 -335 19 -18 32 -19
162 -12 157 7 781 55 1128 86 179 16 229 24 244 38 11 9 97 114 192 232 95
118 194 236 221 261 85 79 274 172 506 250 183 61 227 68 284 44z m3095 -121
c844 -117 1536 -754 1719 -1581 30 -140 33 -133 -53 -133 -43 0 -78 -5 -85
-12 -9 -9 -12 -100 -12 -347 0 -389 -4 -371 92 -371 69 0 68 3 33 -128 -68
-248 -208 -524 -366 -722 -70 -88 -207 -227 -304 -308 -409 -342 -965 -515
-1491 -462 -707 71 -1314 483 -1633 1110 -153 300 -221 589 -221 937 0 321 64
601 205 888 255 519 721 912 1270 1068 87 25 273 62 345 70 102 11 399 6 501
-9z m-7074 -264 c30 -58 97 -183 150 -278 l95 -173 33 7 c32 6 33 5 86 -88
152 -267 255 -414 361 -520 97 -95 176 -118 415 -119 l142 -1 -30 -82 c-17
-44 -51 -138 -76 -208 -28 -78 -52 -128 -61 -130 -29 -6 -409 10 -512 21 -403
44 -756 115 -915 183 -82 35 -478 194 -550 220 -29 11 -97 39 -103 44 -2 1 10
37 27 80 16 44 72 196 124 339 52 143 126 344 164 447 l68 188 45 0 c86 1 228
39 310 83 98 53 145 82 149 89 8 20 26 -3 78 -102z m8424 -23 c-10 -9 -11 -8
-5 6 3 10 9 15 12 12 3 -3 0 -11 -7 -18z m-127 -240 c11 -8 17 -18 15 -23 -2
-5 -15 1 -28 14 -26 24 -16 30 13 9z m52 -29 c-3 -22 -17 -39 -27 -32 -6 4 -3
14 7 25 20 22 23 23 20 7z m74 -82 c0 -2 -8 -10 -17 -17 -16 -13 -17 -12 -4 4
13 16 21 21 21 13z m-3 -41 c0 -8 -4 -12 -9 -9 -5 3 -6 10 -3 15 9 13 12 11
12 -6z m39 -38 c8 3 14 0 14 -7 0 -10 3 -10 14 -1 10 8 16 9 21 1 4 -6 1 -9
-6 -8 -6 2 -14 -3 -17 -11 -3 -8 0 -11 7 -7 7 5 9 1 5 -9 -8 -21 -30 -13 -26
10 2 9 -1 14 -6 11 -5 -3 -18 4 -28 17 -10 12 -12 17 -5 10 7 -6 20 -9 27 -6z
m52 -92 c-3 -3 -9 2 -12 12 -6 14 -5 15 5 6 7 -7 10 -15 7 -18z m60 -31 c-4
-3 -12 5 -18 18 -12 22 -12 22 6 6 10 -10 15 -20 12 -24z m12 -37 c5 2 6 -5 3
-14 -4 -11 -8 -13 -11 -5 -2 7 -9 9 -14 6 -6 -4 -8 -2 -4 4 3 6 2 13 -4 17 -5
3 -15 16 -20 28 -8 16 -4 13 15 -8 14 -16 30 -29 35 -28z m1680 -11 c0 -2 -17
-16 -37 -31 l-38 -28 29 31 c26 28 46 40 46 28z m-1626 -103 c20 -42 16 -56
-4 -15 -8 15 -21 35 -29 45 -13 16 -13 17 0 12 9 -3 23 -22 33 -42z m1543 13
c-7 -14 -13 -23 -15 -21 -7 6 9 45 18 45 4 0 3 -11 -3 -24z m-54 -61 c-3 -9
-8 -14 -10 -11 -3 3 -2 9 2 15 9 16 15 13 8 -4z m4 -67 c-3 -7 -5 -2 -5 12 0
14 2 19 5 13 2 -7 2 -19 0 -25z m20 0 c-3 -7 -5 -2 -5 12 0 14 2 19 5 13 2 -7
2 -19 0 -25z m1038 -3 c23 -22 25 -31 25 -125 l0 -100 -415 0 -415 0 0 91 c0
90 9 123 39 146 12 9 109 12 379 13 l363 0 24 -25z m-2482 -20 c-3 -9 -8 -14
-10 -11 -3 3 -2 9 2 15 9 16 15 13 8 -4z m17 -37 c0 -9 4 -8 10 2 11 17 12 4
2 -22 -6 -15 -9 -14 -19 7 -6 14 -7 25 -2 25 5 0 9 -6 9 -12z m1397 -60 c-3
-7 -5 -2 -5 12 0 14 2 19 5 13 2 -7 2 -19 0 -25z m26 7 c-7 -21 -13 -19 -13 6
0 11 4 18 10 14 5 -3 7 -12 3 -20z m-1393 -30 c0 -5 -5 -3 -10 5 -5 8 -10 20
-10 25 0 6 5 3 10 -5 5 -8 10 -19 10 -25z m-5880 -10 c30 -8 85 -15 123 -15
l67 0 0 -215 c0 -118 -1 -215 -3 -215 -15 0 -501 203 -654 272 -109 50 -132
64 -138 85 -3 14 -4 27 -2 29 7 7 461 72 507 73 25 0 70 -6 100 -14z m5905
-46 c9 -17 15 -37 13 -46 -2 -8 -11 6 -20 31 -20 53 -16 60 7 15z m1342 9 c-3
-8 -6 -5 -6 6 -1 11 2 17 5 13 3 -3 4 -12 1 -19z m33 7 c0 -8 -4 -15 -10 -15
-5 0 -10 7 -10 15 0 8 5 15 10 15 6 0 10 -7 10 -15z m-1333 -37 c-3 -7 -5 -2
-5 12 0 14 2 19 5 13 2 -7 2 -19 0 -25z m348 22 c3 -5 1 -10 -4 -10 -6 0 -11
5 -11 10 0 6 2 10 4 10 3 0 8 -4 11 -10z m85 -7 c-8 -3 -17 -9 -20 -13 -3 -3
-23 -19 -45 -35 -22 -16 -52 -40 -67 -53 -35 -32 -62 -19 -38 18 9 13 11 13
19 1 8 -12 12 -11 27 3 14 15 15 19 3 27 -10 7 -6 8 11 4 20 -5 34 1 60 24 19
17 42 30 50 30 13 -1 13 -1 0 -6z m872 -15 c-9 -4 -195 -7 -412 -7 -217 0
-403 3 -412 7 -10 4 176 7 412 7 236 0 422 -3 412 -7z m-7902 -33 c0 -34 3
-36 88 -79 126 -63 425 -190 675 -287 l77 -30 0 -305 c0 -167 -2 -304 -5 -304
-4 0 -312 137 -800 355 -316 141 -497 244 -564 321 -40 45 -66 104 -80 180
-21 109 -39 97 197 129 114 15 241 34 282 40 126 21 130 21 130 -20z m6582
-37 c-7 -7 -12 -8 -12 -2 0 14 12 26 19 19 2 -3 -1 -11 -7 -17z m18 -17 c-7
-14 -7 -21 0 -21 5 0 10 -10 10 -22 -1 -22 -1 -22 -15 3 -12 21 -12 31 -2 52
7 15 13 22 15 17 2 -5 -2 -18 -8 -29z m3696 10 c49 -22 88 -70 103 -126 6 -22
11 -100 11 -172 l0 -133 -215 0 -215 0 0 34 c0 40 -16 87 -33 98 -22 14 -112
9 -135 -8 -18 -12 -22 -25 -22 -70 l0 -54 -1140 0 -1140 0 0 54 c0 66 -21 86
-90 86 -69 0 -90 -20 -90 -86 l0 -54 -221 0 -221 0 4 163 c3 153 4 164 28 197
13 19 31 41 40 48 50 43 -10 41 1685 41 1551 1 1612 0 1651 -18z m-10952 -102
c26 -143 67 -209 177 -289 121 -88 250 -151 894 -436 154 -69 312 -139 352
-157 l72 -32 1 -292 c0 -161 -2 -293 -5 -293 -2 0 -27 14 -56 30 -135 80 -466
225 -833 364 -232 89 -324 122 -746 270 -245 87 -300 110 -337 145 -19 18 -21
25 -12 49 6 15 67 176 136 357 69 182 129 338 134 347 9 17 16 18 170 26 l36
2 17 -91z m7497 -12 c-10 -9 -11 -8 -5 6 3 10 9 15 12 12 3 -3 0 -11 -7 -18z
m-217 -22 c3 -8 1 -15 -4 -15 -6 0 -10 7 -10 15 0 8 2 15 4 15 2 0 6 -7 10
-15z m-10384 -9 c0 -2 -7 -7 -16 -10 -8 -3 -12 -2 -9 4 6 10 25 14 25 6z
m10447 -18 c-3 -8 -6 -5 -6 6 -1 11 2 17 5 13 3 -3 4 -12 1 -19z m145 -3 c3
-14 1 -25 -3 -25 -5 0 -9 11 -9 25 0 14 2 25 4 25 2 0 6 -11 8 -25z m-162 -34
c0 -32 -6 -24 -14 19 -4 25 -3 31 4 20 5 -8 10 -26 10 -39z m-28 21 c3 -11 0
-19 -7 -19 -7 0 -10 8 -7 19 2 10 6 18 7 18 1 0 5 -8 7 -18z m163 -44 c0 -35
4 -53 14 -56 8 -3 11 0 7 7 -4 6 -3 19 3 28 8 15 10 12 9 -14 -1 -25 -6 -33
-20 -33 -10 0 -18 6 -19 13 0 6 -4 3 -9 -8 -5 -13 -7 0 -3 35 8 93 19 110 18
28z m-155 -24 c0 -8 -4 -12 -10 -9 -5 3 -10 13 -10 21 0 8 5 12 10 9 6 -3 10
-13 10 -21z m-10050 -60 c0 -2 -7 -4 -15 -4 -8 0 -15 4 -15 10 0 5 7 7 15 4 8
-4 15 -8 15 -10z m10240 -364 l0 -320 -190 0 -190 0 0 313 c0 173 3 317 7 320
3 4 89 7 190 7 l183 0 0 -320z m-9978 263 c-6 -2 -9 -10 -6 -15 4 -7 2 -8 -5
-4 -13 9 -5 26 12 25 9 0 8 -2 -1 -6z m10467 -150 c1 -51 7 -83 16 -92 8 -9
37 -14 75 -15 53 -1 64 2 81 22 14 18 17 33 12 67 -3 24 -3 55 1 69 l6 26
1135 0 1135 0 0 -79 c0 -54 4 -82 14 -90 7 -6 40 -13 71 -15 50 -3 62 0 82 20
20 20 23 33 23 94 l0 70 210 0 c116 0 210 -3 210 -7 0 -5 1 -311 3 -680 2
-549 0 -674 -11 -678 -19 -7 -3467 -6 -3486 1 -14 6 -16 78 -16 685 l0 679
219 0 218 0 2 -77z m-11222 -15 c-3 -7 -5 -2 -5 12 0 14 2 19 5 13 2 -7 2 -19
0 -25z m614 -67 c36 -36 36 -54 3 -88 -21 -21 -32 -24 -62 -20 -41 7 -82 46
-82 79 0 62 89 80 141 29z m66 7 c-3 -8 -6 -5 -6 6 -1 11 2 17 5 13 3 -3 4
-12 1 -19z m1108 -88 c-3 -5 -12 -10 -18 -10 -7 0 -6 4 3 10 19 12 23 12 15 0z
m325 -32 c0 -26 -55 -357 -70 -421 -15 -67 -12 -111 10 -134 l19 -21 -52 4
c-29 2 -108 6 -177 8 -133 6 -172 11 -202 27 -26 14 -23 27 22 92 22 31 40 60
40 63 0 6 60 94 70 104 3 3 21 25 40 50 57 73 63 80 113 139 78 90 106 111
149 111 33 0 38 -3 38 -22z m239 -4 c2 -2 -13 -90 -33 -196 -39 -201 -56 -247
-113 -299 -59 -56 -132 -41 -119 23 4 18 22 125 41 238 19 113 37 216 40 229
6 23 7 23 93 16 48 -4 89 -9 91 -11z m-2113 -32 c-5 -4 -66 26 -66 33 0 3 16
-3 35 -12 19 -9 33 -18 31 -21z m239 10 c-3 -3 -11 0 -18 7 -9 10 -8 11 6 5
10 -3 15 -9 12 -12z m2147 8 c53 0 57 -2 76 -33 32 -55 69 -72 467 -212 491
-173 547 -194 820 -302 453 -179 724 -315 841 -420 40 -36 98 -131 126 -208
30 -83 35 -225 13 -355 -16 -101 -123 -518 -146 -575 -7 -16 -14 -39 -16 -50
-9 -49 -209 -674 -355 -1110 -179 -536 -197 -585 -206 -585 -26 0 -558 62
-561 66 -2 2 1 4 7 4 7 0 12 5 12 11 0 6 15 43 34 82 33 72 166 399 166 411 0
3 8 25 19 49 10 23 38 87 61 142 24 55 53 123 66 150 12 28 26 63 29 78 4 15
11 27 16 27 5 0 9 8 9 18 0 10 6 26 13 37 7 11 25 49 39 85 14 36 40 99 56
140 96 240 155 477 168 672 12 180 -29 286 -154 406 -30 28 -57 52 -59 52 -2
0 -30 17 -61 37 -75 49 -203 123 -213 123 -4 0 -14 6 -21 14 -8 7 -30 21 -48
31 -19 10 -37 21 -40 24 -13 16 -319 168 -357 177 -15 4 -32 10 -38 14 -12 8
-186 53 -292 75 -172 35 -213 44 -293 65 -86 21 -170 49 -170 57 0 2 7 20 15
40 20 48 19 79 -5 113 -37 52 -187 90 -356 90 -41 0 -74 2 -74 5 0 3 16 20 37
38 55 49 78 111 120 330 l37 200 81 -7 c44 -3 105 -6 137 -6z m-2105 -26 c-3
-3 -12 -4 -19 -1 -8 3 -5 6 6 6 11 1 17 -2 13 -5z m675 -26 c-8 -8 -9 -4 -5
13 4 13 8 18 11 10 2 -7 -1 -18 -6 -23z m-732 -58 c8 -5 11 -10 5 -10 -5 0
-17 5 -25 10 -8 5 -10 10 -5 10 6 0 17 -5 25 -10z m125 -50 c3 -6 -1 -7 -9 -4
-18 7 -21 14 -7 14 6 0 13 -4 16 -10z m40 -20 c3 -6 -1 -7 -9 -4 -18 7 -21 14
-7 14 6 0 13 -4 16 -10z m475 -74 c0 -2 -8 -10 -17 -17 -16 -13 -17 -12 -4 4
13 16 21 21 21 13z m9585 -25 c6 -1 10 -135 10 -380 0 -209 -3 -374 -7 -368
-4 7 -8 175 -8 375 l0 363 -57 -3 c-57 -3 -58 -3 -61 -35 -2 -18 -6 -33 -10
-33 -4 0 -7 15 -7 33 0 24 -4 32 -17 31 -10 -1 -15 2 -12 7 7 13 34 11 34 -2
0 -6 7 -3 16 5 11 12 29 15 62 12 26 -2 52 -5 57 -5z m-160 -50 c-3 -6 -11
-11 -16 -11 -5 0 -4 6 3 14 14 16 24 13 13 -3z m-28 -153 c-3 -7 -5 -2 -5 12
0 14 2 19 5 13 2 -7 2 -19 0 -25z m-31 -42 c-9 -29 -23 -62 -31 -72 -7 -11 -2
16 13 58 29 87 44 99 18 14z m14 -47 c-18 -42 -25 -28 -9 16 8 20 15 31 17 25
2 -6 -2 -24 -8 -41z m-74 -153 c-2 -6 -5 -3 -5 7 -1 10 -5 16 -10 13 -5 -4 -7
4 -3 16 l5 22 9 -24 c5 -13 7 -28 4 -34z m-40 -33 c-8 -15 -15 -25 -16 -21 0
12 23 58 27 54 3 -2 -2 -17 -11 -33z m20 -11 c-18 -16 -18 -16 -6 6 6 13 14
21 18 18 3 -4 -2 -14 -12 -24z m-3784 -93 c-6 -39 -8 -35 -15 26 -6 44 -5 47
6 27 8 -13 11 -37 9 -53z m-4515 55 c-3 -3 -12 -4 -19 -1 -8 3 -5 6 6 6 11 1
17 -2 13 -5z m8240 -36 c-3 -8 -6 -5 -6 6 -1 11 2 17 5 13 3 -3 4 -12 1 -19z
m-3669 -81 c14 -16 14 -17 0 -12 -8 3 -20 17 -27 31 -14 32 -14 45 1 19 6 -11
18 -28 26 -38z m3631 9 c-7 -14 -16 -26 -20 -26 -5 0 0 13 9 29 20 36 27 34
11 -3z m441 -47 c0 -11 -4 -18 -10 -14 -5 3 -7 12 -3 20 7 21 13 19 13 -6z
m-4005 -72 c10 -20 11 -27 2 -24 -7 2 -13 13 -15 25 -2 13 -8 19 -14 16 -7 -4
-8 -2 -4 4 4 7 3 12 -2 12 -5 0 -14 12 -21 28 l-11 27 25 -30 c14 -16 32 -43
40 -58z m3526 49 c-6 -7 -9 -22 -5 -32 5 -15 4 -16 -5 -4 -8 12 -11 12 -17 -5
-5 -11 -21 -30 -36 -44 -16 -13 -27 -29 -25 -35 3 -6 -8 -27 -24 -46 -16 -19
-29 -29 -29 -23 0 6 7 16 15 23 8 7 12 16 9 21 -3 5 0 8 7 7 7 -2 13 5 14 15
0 9 15 35 33 56 19 22 33 42 33 46 -2 8 23 34 33 35 5 0 3 -6 -3 -14z m-3577
-22 c3 -8 2 -12 -4 -9 -6 3 -10 10 -10 16 0 14 7 11 14 -7z m4046 -44 c0 -13
-6 -20 -17 -19 -11 0 -13 3 -5 6 6 2 12 11 12 19 0 8 2 14 5 14 3 0 5 -9 5
-20z m-4020 -6 c0 -8 -4 -12 -10 -9 -5 3 -10 10 -10 16 0 5 5 9 10 9 6 0 10
-7 10 -16z m-33 -16 c-3 -8 -6 -5 -6 6 -1 11 2 17 5 13 3 -3 4 -12 1 -19z
m3670 16 c-3 -3 -12 -4 -19 -1 -8 3 -5 6 6 6 11 1 17 -2 13 -5z m191 -1 c-32
-2 -84 -2 -115 0 -32 2 -6 3 57 3 63 0 89 -1 58 -3z m141 -2 c10 -6 -1 -8 -30
-4 -24 3 -46 7 -48 9 -10 9 65 3 78 -5z m-389 -10 c0 -5 -16 -11 -35 -13 -41
-5 -48 9 -7 15 15 2 30 5 35 6 4 0 7 -3 7 -8z m-3510 -15 c0 -2 -8 -10 -17
-17 -16 -13 -17 -12 -4 4 13 16 21 21 21 13z m26 -63 c-8 -8 -12 -3 -21 27
l-7 25 17 -23 c9 -13 14 -26 11 -29z m7050 -205 c-4 -123 -7 -233 -9 -245 l-2
-23 -1852 0 -1853 0 0 178 0 179 29 43 c16 24 46 54 67 67 l39 23 1794 0 1793
0 -6 -222z m-3742 166 c3 -8 2 -12 -4 -9 -6 3 -10 10 -10 16 0 14 7 11 14 -7z
m-3228 -41 c21 -27 32 -43 23 -36 -8 6 -26 10 -41 9 -18 -2 -25 1 -21 9 2 7 0
16 -6 20 -6 3 -11 11 -11 16 0 6 5 7 12 3 8 -5 9 -2 5 9 -10 27 -2 20 39 -30z
m3219 17 c3 -5 0 -7 -9 -4 -10 4 -17 -2 -20 -18 -3 -12 -7 -32 -9 -43 -3 -11
-5 -4 -6 16 -1 45 27 77 44 49z m-5 -30 c0 -5 -4 -10 -10 -10 -5 0 -10 5 -10
10 0 6 5 10 10 10 6 0 10 -4 10 -10z m-50 -20 c0 -5 -2 -10 -4 -10 -3 0 -8 5
-11 10 -3 6 -1 10 4 10 6 0 11 -4 11 -10z m-45 -50 c-16 -17 -33 -30 -39 -30
-5 0 5 16 24 35 18 19 36 32 39 30 2 -3 -8 -19 -24 -35z m-3014 -31 c47 -47
58 -63 48 -70 -8 -5 -18 -9 -24 -9 -5 0 -3 5 5 10 16 10 4 26 -70 96 -19 19
-32 34 -27 34 4 0 35 -28 68 -61z m-61 20 c0 -6 -4 -7 -10 -4 -5 3 -10 11 -10
16 0 6 5 7 10 4 6 -3 10 -11 10 -16z m3158 -851 c-2 -469 -4 -747 -5 -618 -7
603 -7 1470 0 1470 4 0 6 -384 5 -852z m-158 792 c-12 -16 -26 -30 -33 -30 -6
0 2 14 18 30 16 17 30 30 33 30 2 0 -6 -13 -18 -30z m137 -22 c-2 -13 -4 -5
-4 17 -1 22 1 32 4 23 2 -10 2 -28 0 -40z m-20 -15 c-3 -10 -5 -2 -5 17 0 19
2 27 5 18 2 -10 2 -26 0 -35z m-2967 -6 c0 -8 11 -20 25 -27 14 -7 25 -17 25
-22 0 -4 6 -8 13 -8 8 0 24 -11 37 -25 36 -38 16 -30 -49 21 -57 44 -81 74
-61 74 6 0 10 -6 10 -13z m2867 7 c-3 -3 -12 -4 -19 -1 -8 3 -5 6 6 6 11 1 17
-2 13 -5z m123 -809 c0 -751 -1 -795 -17 -794 -11 0 -13 3 -5 6 9 4 12 172 12
794 0 434 2 789 5 789 3 0 5 -358 5 -795z m-205 759 c1 -14 -5 -20 -21 -19
-12 0 -26 4 -30 8 -5 4 0 5 11 1 14 -6 17 -4 12 8 -3 9 -3 19 1 22 11 11 25 0
27 -20z m-65 -18 c0 -2 -8 -10 -17 -17 -16 -13 -17 -12 -4 4 13 16 21 21 21
13z m-64 -61 c-17 -13 -33 -22 -37 -19 -5 3 -15 -6 -24 -20 -9 -13 -25 -26
-37 -29 -15 -4 -10 4 18 26 21 18 41 31 45 30 4 -1 15 7 24 17 10 11 23 20 29
20 6 -1 -2 -12 -18 -25z m14 -25 c-24 -15 -36 -11 -14 4 10 8 21 12 24 10 2
-3 -2 -9 -10 -14z m-2374 -87 c-3 -4 -15 2 -25 11 -11 10 -25 15 -31 11 -6 -3
-9 -2 -8 2 2 5 -10 22 -27 36 -20 19 -9 14 33 -14 35 -22 61 -43 58 -46z
m-476 47 c0 -5 -4 -10 -10 -10 -5 0 -10 5 -10 10 0 6 5 10 10 10 6 0 10 -4 10
-10z m360 0 c0 -5 -2 -10 -4 -10 -3 0 -8 5 -11 10 -3 6 -1 10 4 10 6 0 11 -4
11 -10z m2433 -5 c-3 -9 -8 -14 -10 -11 -3 3 -2 9 2 15 9 16 15 13 8 -4z m-93
-25 c-24 -15 -37 -11 -16 5 11 8 22 12 25 9 3 -3 -1 -9 -9 -14z m25 -10 c-3
-5 -12 -10 -18 -10 -7 0 -6 4 3 10 19 12 23 12 15 0z m-2154 -53 c3 -5 8 -8
10 -6 9 5 49 -13 49 -23 0 -7 -5 -6 -14 1 -8 6 -18 11 -22 9 -9 -2 -94 49 -94
57 0 6 64 -28 71 -38z m2034 13 c-3 -5 -12 -10 -18 -10 -7 0 -6 4 3 10 19 12
23 12 15 0z m-2061 -25 c11 -8 15 -15 10 -15 -6 0 -19 7 -30 15 -10 8 -14 14
-9 14 6 0 19 -6 29 -14z m2097 -2 c13 -15 12 -15 -8 -4 -24 12 -29 21 -14 21
5 0 15 -7 22 -17z m-92 4 c-2 -1 -13 -9 -24 -17 -19 -14 -19 -14 -6 3 7 9 18
17 24 17 6 0 8 -1 6 -3z m-1841 -55 c8 -5 -1 -8 -22 -8 -19 1 -32 4 -29 9 6 9
35 9 51 -1z m1761 5 c-2 -2 -20 -11 -39 -20 l-35 -17 24 20 c13 11 30 20 39
20 8 0 13 -2 11 -3z m-1782 -33 c-3 -3 -12 -4 -19 -1 -8 3 -5 6 6 6 11 1 17
-2 13 -5z m132 -13 c9 -6 5 -8 -13 -8 -14 0 -26 3 -26 8 0 11 21 11 39 0z
m101 -41 c11 -8 7 -9 -15 -4 -37 8 -45 14 -19 14 10 0 26 -5 34 -10z m1339 0
c-6 -5 -18 -6 -26 -3 -19 8 -16 11 13 11 17 0 22 -3 13 -8z m-42 -8 c8 -5 -2
-8 -25 -9 -28 0 -32 1 -17 7 26 11 28 11 42 2z m83 -7 c-7 -8 -18 -15 -24 -15
-6 0 -2 7 8 15 25 19 32 19 16 0z m-1321 1 c-2 -2 -17 -6 -34 -10 -22 -5 -26
-4 -15 4 14 9 59 15 49 6z m6701 -1158 l-5 -1163 -23 -37 c-13 -20 -40 -47
-60 -60 l-37 -23 -2095 0 -2095 0 -38 23 c-20 13 -50 45 -65 70 l-27 47 -3
1153 -3 1152 2228 0 2228 0 -5 -1162z m-6625 1131 c5 -5 -6 -4 -25 2 -45 15
-54 24 -15 15 17 -4 34 -12 40 -17z m1080 12 c-6 -5 -28 -12 -50 -15 l-40 -6
45 14 c57 18 56 18 45 7z m-1905 -31 c0 -5 -2 -10 -4 -10 -3 0 -8 5 -11 10 -3
6 -1 10 4 10 6 0 11 -4 11 -10z m1775 -5 c-16 -8 -41 -14 -55 -14 -17 0 -11 5
20 13 59 17 72 18 35 1z m-848 -1 c-3 -3 -12 -4 -19 -1 -8 3 -5 6 6 6 11 1 17
-2 13 -5z m50 -10 c-3 -3 -12 -4 -19 -1 -8 3 -5 6 6 6 11 1 17 -2 13 -5z m40
0 c-3 -3 -12 -4 -19 -1 -8 3 -5 6 6 6 11 1 17 -2 13 -5z m668 -3 c-3 -5 6 -11
20 -13 26 -3 26 -3 4 -16 -11 -8 -18 -9 -15 -3 4 6 -4 13 -19 17 -26 6 -25 24
1 24 8 0 13 -4 9 -9z m-515 -14 c45 1 51 -1 30 -9 -14 -5 -43 -7 -65 -3 -22 3
-53 6 -68 7 -20 0 -25 3 -15 9 7 5 24 6 38 2 14 -4 50 -7 80 -6z m465 -5 c-3
-3 -11 0 -18 7 -9 10 -8 11 6 5 10 -3 15 -9 12 -12z m-160 -2 c-11 -5 -27 -9
-35 -9 -9 0 -8 4 5 9 11 5 27 9 35 9 9 0 8 -4 -5 -9z m105 0 c-8 -5 -31 -9
-50 -8 l-35 1 40 7 c59 11 61 11 45 0z m-525 -21 c-29 -11 -32 -11 -32 4 0 9
9 12 26 9 23 -5 24 -6 6 -13z m-105 7 c0 -9 -40 -13 -46 -5 -3 5 6 9 20 9 14
0 26 -2 26 -4z m687 -2 c-3 -3 -12 -4 -19 -1 -8 3 -5 6 6 6 11 1 17 -2 13 -5z
m140 0 c-3 -3 -12 -4 -19 -1 -8 3 -5 6 6 6 11 1 17 -2 13 -5z m-190 -10 c-3
-3 -12 -4 -19 -1 -8 3 -5 6 6 6 11 1 17 -2 13 -5z m-3820 -206 c-3 -8 -6 -5
-6 6 -1 11 2 17 5 13 3 -3 4 -12 1 -19z m-11 -55 c-10 -10 -19 5 -10 18 6 11
8 11 12 0 2 -7 1 -15 -2 -18z m-29 -25 c-3 -7 -5 -2 -5 12 0 14 2 19 5 13 2
-7 2 -19 0 -25z m50 10 c-3 -8 -6 -5 -6 6 -1 11 2 17 5 13 3 -3 4 -12 1 -19z
m-86 -95 c-12 -20 -14 -14 -5 12 4 9 9 14 11 11 3 -2 0 -13 -6 -23z m839 -17
c0 -2 -9 -6 -20 -9 -11 -3 -18 -1 -14 4 5 9 34 13 34 5z m-839 -37 c-5 -13
-10 -19 -10 -12 -1 15 10 45 15 40 3 -2 0 -15 -5 -28z m1202 -16 c-7 -2 -19
-2 -25 0 -7 3 -2 5 12 5 14 0 19 -2 13 -5z m70 -20 c-13 -2 -33 -2 -45 0 -13
2 -3 4 22 4 25 0 35 -2 23 -4z m14 -19 c-3 -3 -12 -4 -19 -1 -8 3 -5 6 6 6 11
1 17 -2 13 -5z m-1300 -76 c-3 -7 -5 -2 -5 12 0 14 2 19 5 13 2 -7 2 -19 0
-25z m-5789 -303 c2 -1 -23 -40 -54 -86 -171 -255 -277 -585 -365 -1134 -26
-164 -37 -473 -20 -571 14 -81 51 -168 88 -206 30 -31 27 -34 -14 -16 -56 25
-93 61 -123 122 -55 113 -65 177 -64 421 0 231 11 340 59 586 55 283 196 634
337 841 l40 59 56 -7 c31 -3 58 -8 60 -9z m780 -134 c84 -10 155 -21 157 -23
2 -2 -12 -46 -32 -98 -76 -203 -118 -429 -111 -608 2 -77 1 -92 -12 -92 -8 1
-103 18 -210 38 l-195 38 1 144 c2 259 60 465 166 585 36 41 32 41 236 16z
m10292 -671 l0 -370 -2547 2 c-2855 3 -2577 -5 -2666 77 -80 74 -86 102 -87
377 0 131 -1 249 0 262 l0 22 2650 0 2650 0 0 -370z m-6207 -219 c192 -22 351
-42 354 -45 3 -3 -16 -67 -42 -142 -46 -130 -50 -137 -84 -152 -87 -36 -340
-26 -604 24 l-139 27 7 26 c5 22 77 253 90 289 6 17 31 16 418 -27z m-4963
-135 c115 -26 280 -83 280 -96 0 -18 -131 -400 -163 -477 -72 -170 -147 -273
-210 -288 -26 -7 -90 16 -121 43 -33 29 -74 134 -87 222 -18 127 0 432 37 604
l6 29 77 -7 c42 -3 123 -17 181 -30z m2253 -13 c-7 -2 -19 -2 -25 0 -7 3 -2 5
12 5 14 0 19 -2 13 -5z m3339 -289 c191 -40 357 -83 397 -104 74 -38 123 -116
136 -216 l7 -52 -124 -6 c-245 -11 -578 -17 -614 -10 l-36 7 6 46 c14 104 83
361 97 361 5 0 64 -12 131 -26z m-982 -399 c340 -26 752 -38 1100 -31 184 4
352 9 373 13 36 5 37 5 37 -25 0 -45 -20 -58 -107 -71 -440 -62 -1449 -80
-1682 -30 -28 6 -53 14 -55 18 -3 4 0 40 7 80 l11 73 65 -6 c37 -4 149 -13
251 -21z"/>
<path d="M7130 12729 c-26 -11 -90 -67 -90 -80 0 -5 25 5 56 22 31 16 67 29
80 29 46 0 103 -38 141 -96 20 -30 41 -53 47 -51 19 7 6 58 -26 105 -47 69
-137 99 -208 71z"/>
<path d="M6061 12584 c-30 -39 -26 -52 7 -21 15 15 35 27 43 27 30 0 76 -65
89 -126 l8 -32 -53 5 c-48 5 -54 3 -78 -23 -58 -63 -60 -150 -4 -184 60 -37
132 -16 161 45 38 80 5 250 -60 310 -37 34 -86 34 -113 -1z m129 -202 c46 -37
4 -122 -60 -122 -49 0 -64 43 -35 100 22 43 58 52 95 22z"/>
<path d="M7900 12435 c-42 -19 -80 -53 -80 -72 0 -19 14 -16 72 13 28 14 66
27 85 27 42 1 85 -31 97 -72 13 -46 30 -39 23 11 -12 86 -109 132 -197 93z"/>
<path d="M7103 12396 c-16 -13 -42 -51 -58 -83 -24 -46 -30 -71 -30 -123 0
-61 2 -65 24 -68 49 -7 127 104 138 198 11 97 -16 125 -74 76z"/>
<path d="M7893 12166 c-49 -41 -87 -131 -88 -205 0 -48 4 -66 16 -74 44 -28
137 107 146 214 8 88 -19 111 -74 65z"/>
<path d="M7524 11964 c-16 -22 -38 -57 -49 -77 -11 -20 -25 -37 -32 -37 -23 0
-14 -14 58 -86 l72 -72 -69 -35 c-124 -64 -135 -87 -23 -48 66 22 135 57 144
71 11 17 -20 54 -82 100 l-58 43 38 78 c44 90 45 123 1 63z"/>
<path d="M6950 11544 c0 -28 31 -83 71 -124 68 -70 191 -117 273 -103 46 7 38
19 -18 25 -98 11 -208 84 -273 181 -26 38 -53 49 -53 21z"/>
<path d="M14626 11754 c-178 -55 -283 -247 -229 -419 46 -143 141 -226 283
-245 224 -30 419 168 382 388 -35 209 -237 337 -436 276z m219 -58 c28 -13 71
-45 96 -73 174 -187 41 -486 -216 -487 -255 -1 -389 301 -217 487 64 68 128
97 217 97 53 0 82 -6 120 -24z"/>
<path d="M14670 11619 c-177 -53 -189 -302 -18 -374 128 -53 268 43 268 185 0
53 -24 113 -56 141 -52 46 -134 66 -194 48z"/>
<path d="M8672 11714 c-20 -14 -22 -23 -22 -113 0 -62 4 -101 12 -109 8 -8 51
-12 129 -12 l117 0 12 29 c8 21 10 56 5 116 -7 79 -9 87 -32 96 -42 16 -195
11 -221 -7z m206 -111 l-3 -78 -87 -3 -88 -3 0 81 0 80 90 0 91 0 -3 -77z"/>
<path d="M8990 11724 c-32 -13 -40 -38 -40 -122 0 -123 -1 -122 133 -122 62 0
119 5 127 10 12 8 15 30 13 112 -2 56 -8 107 -13 112 -12 12 -195 19 -220 10z
m188 -121 l-3 -78 -87 -3 -88 -3 0 81 0 80 90 0 91 0 -3 -77z"/>
<path d="M9290 11724 c-32 -13 -40 -38 -40 -122 0 -123 -1 -122 133 -122 62 0
119 5 127 10 20 12 22 202 2 222 -13 14 -193 23 -222 12z m190 -124 l0 -80
-90 0 -90 0 0 80 0 80 90 0 90 0 0 -80z"/>
<path d="M11489 11706 c-83 -29 -139 -76 -175 -147 -23 -45 -28 -66 -28 -129
0 -62 5 -85 28 -131 50 -100 146 -159 260 -160 116 -1 213 57 263 159 37 76
39 182 4 254 -62 128 -225 200 -352 154z m168 -47 c96 -36 153 -113 160 -217
4 -59 2 -73 -24 -122 -93 -176 -330 -183 -430 -13 -24 41 -28 59 -28 123 0 81
15 117 72 175 58 58 174 83 250 54z"/>
<path d="M11354 11445 c-3 -8 -3 -19 1 -25 12 -20 75 -8 75 15 0 26 -67 35
-76 10z"/>
<path d="M12271 11698 c-74 -28 -143 -98 -166 -169 -67 -197 69 -390 274 -391
120 -1 209 56 262 167 57 117 31 245 -67 334 -88 81 -194 101 -303 59z m215
-52 c153 -71 181 -285 53 -400 -129 -118 -334 -60 -395 111 -19 54 -17 94 6
157 22 58 78 117 134 142 51 22 143 17 202 -10z"/>
<path d="M12180 11530 c0 -20 27 -40 54 -40 26 0 18 36 -9 48 -36 17 -45 15
-45 -8z"/>
<path d="M8680 11438 c-24 -13 -25 -18 -28 -112 -2 -64 1 -103 9 -112 9 -11
41 -14 130 -14 l119 0 11 28 c14 34 6 189 -10 205 -18 18 -200 21 -231 5z
m198 -115 l-3 -78 -87 -3 -88 -3 0 81 0 80 90 0 91 0 -3 -77z"/>
<path d="M8980 11438 c-24 -13 -25 -19 -28 -106 -4 -133 -5 -132 131 -132 62
0 119 5 127 10 20 12 22 202 2 222 -19 19 -199 23 -232 6z m200 -118 l0 -80
-90 0 -90 0 0 80 0 80 90 0 90 0 0 -80z"/>
<path d="M9280 11438 c-24 -13 -25 -19 -28 -106 -4 -134 -6 -132 138 -132 142
0 140 -2 140 122 0 118 -4 122 -127 126 -66 2 -106 -2 -123 -10z m198 -115
l-3 -78 -87 -3 -88 -3 0 81 0 80 90 0 91 0 -3 -77z"/>
<path d="M6740 9918 c-58 -21 -68 -91 -19 -132 37 -32 74 -28 107 9 27 32 28
64 2 97 -22 29 -56 39 -90 26z m55 -73 c0 -23 -5 -31 -21 -33 -30 -4 -48 21
-34 48 18 33 55 23 55 -15z"/>
<path d="M11707 9334 c-374 -58 -711 -233 -972 -506 -229 -239 -374 -513 -445
-844 -31 -142 -38 -418 -16 -574 154 -1066 1236 -1726 2249 -1373 928 323
1393 1369 1011 2275 -232 548 -739 939 -1329 1023 -124 18 -381 18 -498 -1z
m533 -229 c164 -32 382 -118 514 -203 284 -182 504 -461 609 -772 132 -391
105 -791 -80 -1152 -75 -147 -160 -265 -274 -378 -512 -506 -1276 -579 -1879
-179 -122 81 -304 262 -388 387 -362 531 -346 1230 39 1732 253 329 600 528
1019 583 74 10 357 -2 440 -18z"/>
<path d="M11207 8785 c-41 -21 -151 -110 -182 -146 -55 -66 -18 -159 64 -159
33 0 51 10 122 66 45 36 90 71 99 77 56 40 50 131 -11 163 -35 18 -57 18 -92
-1z m88 -59 c20 -30 10 -55 -37 -87 -18 -13 -58 -44 -89 -71 -62 -52 -86 -58
-114 -28 -34 37 -5 77 134 181 46 35 85 37 106 5z"/>
<path d="M12370 8582 c-122 -98 -539 -445 -695 -578 -573 -489 -835 -719 -835
-731 0 -3 8 1 18 9 9 8 51 42 93 75 121 95 698 578 991 830 355 304 532 462
526 468 -2 2 -46 -31 -98 -73z"/>
<path d="M10872 8458 c-41 -20 -182 -274 -182 -327 0 -76 89 -127 148 -85 12
8 45 59 71 112 27 53 61 115 77 137 39 58 38 108 -4 146 -34 31 -70 36 -110
17z m86 -50 c20 -20 14 -47 -23 -108 -19 -31 -52 -93 -74 -137 -40 -81 -62
-100 -94 -81 -42 23 -41 45 11 151 68 139 104 187 140 187 15 0 33 -5 40 -12z"/>
<path d="M12955 7913 c-129 -105 -299 -246 -465 -388 -91 -78 -196 -168 -235
-200 -116 -98 -613 -535 -669 -587 -99 -95 -25 -41 195 142 547 454 1275 1089
1249 1089 -3 0 -36 -25 -75 -56z"/>
<path d="M12663 6838 c-201 -174 -339 -313 -276 -280 59 32 420 371 396 372
-7 0 -61 -42 -120 -92z"/>
<path d="M14250 8259 c0 -5 5 -7 10 -4 6 3 10 8 10 11 0 2 -4 4 -10 4 -5 0
-10 -5 -10 -11z"/>
<path d="M10340 6281 c0 -5 7 -14 15 -21 16 -14 18 -10 9 14 -6 17 -24 22 -24
7z"/>
<path d="M13794 5476 c-17 -13 -20 -31 -24 -155 -3 -78 -2 -155 1 -172 13 -60
80 -79 124 -34 24 23 25 28 25 175 0 147 -1 152 -25 175 -27 28 -71 33 -101
11z m70 -42 c13 -12 16 -40 16 -144 0 -104 -3 -132 -16 -144 -19 -19 -26 -20
-42 -4 -17 17 -17 279 0 296 16 16 23 15 42 -4z"/>
<path d="M13790 5010 c-19 -19 -20 -33 -20 -239 l0 -220 27 -21 c33 -26 79
-21 106 11 15 19 17 46 17 231 0 208 0 209 -25 233 -30 31 -77 33 -105 5z m80
-39 c12 -24 14 -380 1 -399 -4 -8 -19 -12 -32 -10 l-24 3 -3 199 c-2 200 1
226 34 226 7 0 18 -9 24 -19z"/>
<path d="M12160 3141 c-51 -9 -72 -28 -129 -114 l-51 -77 -420 0 -419 0 -38
41 c-21 23 -60 59 -86 80 l-49 39 -97 0 c-53 0 -135 -5 -181 -10 -102 -13
-118 -26 -151 -129 -34 -106 -37 -104 149 -96 l157 6 21 -33 c21 -34 21 -34 3
-71 l-19 -37 -158 0 c-121 0 -163 -3 -178 -14 -19 -14 -18 -15 4 -61 30 -63
89 -131 124 -146 21 -8 72 -10 176 -6 172 7 173 7 247 120 l50 76 418 1 419 0
84 -79 c47 -43 95 -81 107 -83 26 -4 215 6 300 17 54 7 59 10 81 49 33 57 58
135 50 158 -6 19 -14 20 -167 16 l-161 -3 -18 31 c-18 30 -18 34 -1 68 l17 36
150 0 c83 0 161 3 174 6 47 13 12 102 -73 184 l-36 35 -132 1 c-73 1 -148 -1
-167 -5z m324 -92 c25 -28 46 -57 46 -65 0 -11 -32 -14 -157 -16 l-158 -3 -27
-50 c-15 -27 -28 -58 -28 -67 0 -10 14 -41 32 -69 l31 -51 149 7 c110 5 148 4
148 -5 0 -6 -9 -33 -21 -60 -25 -57 -20 -56 -203 -70 -151 -12 -151 -12 -256
94 l-64 66 -446 0 -446 0 -36 -62 c-21 -35 -50 -79 -66 -98 l-30 -35 -145 -3
-145 -4 -34 35 c-18 20 -41 50 -51 66 l-18 31 159 0 160 0 32 56 c36 65 35 80
-11 143 l-31 44 -149 -7 -149 -7 10 28 c19 51 44 93 60 98 8 2 78 9 154 15
l139 11 38 -27 c21 -14 63 -53 93 -85 l54 -59 446 0 445 0 37 58 c92 146 81
140 266 141 l126 1 46 -51z"/>
<path d="M15065 2983 c-11 -3 -32 -16 -46 -29 -28 -27 -37 -29 -154 -39 -44
-3 -87 -8 -96 -11 -23 -6 -32 -65 -19 -114 9 -34 15 -40 38 -40 96 -1 230 -15
247 -26 26 -19 85 -18 113 2 67 47 70 179 6 235 -22 19 -60 28 -89 22z m63
-63 c44 -41 37 -123 -13 -156 -23 -15 -27 -15 -50 0 -50 33 -57 115 -13 156
27 25 49 25 76 0z m-191 -88 c-8 -29 -16 -42 -29 -42 -21 0 -22 6 -7 48 8 24
32 44 46 38 1 -1 -4 -20 -10 -44z m-73 11 c-10 -46 -13 -53 -24 -53 -19 0 -22
30 -6 55 22 33 38 32 30 -2z m118 -28 c3 -16 1 -25 -7 -25 -8 0 -10 9 -7 25 2
14 6 25 7 25 1 0 5 -11 7 -25z"/>
<path d="M13806 2930 c-43 -15 -87 -36 -97 -47 -23 -22 -64 -202 -55 -238 6
-24 56 -76 130 -134 28 -22 49 -31 77 -31 54 0 207 57 224 84 16 25 45 160 45
209 0 40 -12 55 -100 131 -78 67 -103 70 -224 26z m163 -47 c20 -14 38 -28 40
-29 2 -2 -2 -12 -10 -21 -7 -10 -9 -15 -5 -11 5 4 16 2 25 -5 14 -11 14 -10 2
6 -8 10 -9 17 -3 17 6 0 23 -15 37 -34 25 -33 26 -36 14 -103 -6 -37 -15 -77
-20 -89 -9 -24 -74 -58 -95 -50 -8 3 -12 2 -9 -4 5 -9 -54 -30 -86 -30 -20 0
-42 24 -31 35 4 5 1 5 -6 1 -6 -4 -18 -1 -25 6 -8 7 -30 27 -50 45 -19 17 -37
37 -38 45 -4 29 1 69 9 65 4 -3 7 11 8 31 0 20 6 38 13 40 11 4 11 6 0 13 -11
6 -9 12 5 28 10 11 23 18 27 15 5 -3 9 0 9 6 0 7 6 10 14 7 8 -3 16 -3 18 1 4
8 87 40 107 41 8 1 30 -11 50 -26z"/>
<path d="M13940 2870 c-8 -5 -10 -10 -5 -10 6 0 17 5 25 10 8 5 11 10 5 10 -5
0 -17 -5 -25 -10z"/>
<path d="M13880 2852 c0 -5 -9 -12 -20 -15 -11 -3 -18 -2 -16 2 3 4 -6 8 -18
9 -24 2 -46 -31 -46 -68 0 -11 -4 -20 -9 -20 -11 0 -9 -116 3 -127 5 -4 6 -3
2 5 -14 24 10 11 42 -23 l32 -36 57 17 c32 9 66 16 75 17 9 1 16 4 16 7 -1 18
3 31 10 27 4 -3 8 25 10 63 l3 68 -43 36 c-23 20 -47 36 -54 36 -7 0 -19 3
-28 6 -9 3 -16 2 -16 -4z m-55 -22 c-3 -5 -11 -10 -16 -10 -6 0 -7 5 -4 10 3
6 11 10 16 10 6 0 7 -4 4 -10z m119 -59 c24 -25 26 -34 20 -66 -5 -30 -13 -40
-40 -51 -43 -18 -44 -18 -76 10 -45 38 -37 99 16 122 43 19 49 18 80 -15z"/>
<path d="M13878 2573 c7 -3 16 -2 19 1 4 3 -2 6 -13 5 -11 0 -14 -3 -6 -6z"/>
</g>
</svg>
