<?xml version="1.0"?>
<svg width="7730" height="7730" xmlns="http://www.w3.org/2000/svg" xmlns:svg="http://www.w3.org/2000/svg" preserveAspectRatio="xMidYMid meet" version="1.0">
 <g class="layer">
  <title>Layer 1</title>
  <g fill="#000000" id="svg_1" transform="matrix(0.1 0 0 -0.1 0 0)">
   <path d="m48914,-17014c-91,-17 -175,-42 -246,-72c-43,-18 -76,-24 -130,-24c-436,0 -837,-244 -1027,-626c-85,-170 -114,-298 -114,-494l0,-145l512,-2645c281,-1455 560,-2890 618,-3190l106,-545l1,-170c0,-122 -5,-197 -17,-265c-36,-193 -127,-410 -239,-572c-65,-95 -1657,-1898 -1748,-1980c-84,-76 -214,-165 -317,-217c-69,-34 -92,-41 -142,-41c-92,0 -276,35 -390,75c-65,23 -421,195 -960,465c-1274,637 -1407,707 -1517,790c-234,179 -412,429 -504,709c-20,61 -232,1141 -635,3229c-332,1725 -616,3182 -630,3237c-123,484 -574,825 -1090,825c-132,0 -250,-21 -372,-66c-85,-32 -115,-38 -226,-45c-198,-12 -328,-44 -471,-116c-178,-90 -282,-186 -462,-426c-883,-1178 -1446,-2645 -1588,-4132c-38,-393 -49,-968 -26,-1327c74,-1164 371,-2281 865,-3253c1040,-2048 2927,-3458 5240,-3915c481,-95 1014,-150 1462,-150c212,0 213,0 218,-22c4,-20 474,-3184 522,-3518c9,-63 18,-117 20,-119c2,-2 58,50 126,116c188,184 348,293 496,337c69,20 195,21 252,1c151,-53 260,-201 306,-416c24,-113 24,-413 -1,-584c-34,-233 -100,-511 -183,-770c-34,-105 -46,-126 -246,-430c-115,-176 -237,-362 -270,-413l-60,-93l-4,-267l-5,-267l186,-1250c103,-687 218,-1459 256,-1715c38,-256 749,-5039 1579,-10630l1511,-10165l120,-625c67,-344 130,-665 141,-715c208,-939 705,-1796 1329,-2291c223,-177 506,-330 737,-397l51,-15l80,96c422,517 1072,994 1782,1309c220,98 707,273 759,273c7,0 11,-24 11,-70c0,-83 11,-98 104,-140c303,-137 1197,-214 1290,-111c9,10 29,84 46,172c17,87 52,220 80,304c117,345 170,620 204,1055c14,170 32,268 225,1230c1279,6373 2242,10281 2802,11370c27,53 55,105 63,115c16,22 16,40 -4,-2555c-37,-4665 -141,-9140 -255,-10945c-8,-126 -17,-304 -20,-395c-3,-91 -8,-177 -11,-192c-9,-45 53,-83 242,-148c141,-49 343,-100 521,-131c105,-19 165,-23 333,-24c184,0 212,2 275,22c39,12 84,35 102,50c31,28 32,31 68,248c446,2742 967,6659 1280,9625c311,2953 505,5757 509,7355l1,440l-33,157c-66,317 -209,873 -409,1593l-117,419l12,106c69,613 296,1582 656,2795c36,121 72,243 80,270c21,72 190,616 241,775c24,74 111,345 194,601c89,274 151,483 151,505c0,22 -11,59 -24,85c-14,25 -438,669 -943,1430c-506,761 -922,1390 -926,1396c-5,7 257,774 608,1781c338,973 615,1776 615,1785c0,22 -16,26 -461,117c-423,87 -437,88 -460,38c-5,-13 -250,-831 -543,-1818l-534,-1795l-1056,-3c-581,-1 -1056,1 -1056,5c0,28 -301,3693 -305,3710c-3,13 -15,25 -28,28c-12,3 -233,-14 -491,-38c-529,-49 -502,-42 -491,-127c3,-25 129,-826 280,-1780c151,-954 276,-1750 277,-1769c3,-31 0,-35 -27,-42c-17,-5 -45,-23 -62,-41c-24,-26 -954,-1592 -1623,-2733c-133,-227 -135,-181 28,-681c406,-1245 588,-1833 757,-2450c221,-803 345,-1432 361,-1824c6,-134 6,-136 -40,-335c-103,-442 -233,-1036 -366,-1680c-661,-3200 -1220,-6702 -1580,-9898c-22,-197 -40,-365 -41,-375c0,-9 -9,15 -19,53c-11,39 -865,3625 -1900,7970c-1034,4345 -1905,8001 -1935,8125c-186,774 -2305,9681 -2305,9690c0,6 8,13 18,17c137,49 617,277 837,398c703,386 1295,833 1846,1391c561,570 992,1170 1344,1874c434,867 675,1754 757,2790c27,339 14,969 -28,1365c-203,1935 -1051,3729 -2404,5086c-457,458 -917,826 -1456,1165c-323,202 -461,253 -709,260c-91,2 -165,-1 -211,-10zm3603,-42262c480,-136 954,-634 1252,-1314c323,-740 429,-1603 285,-2341c-113,-583 -399,-1052 -753,-1234c-70,-36 -256,7 -456,104c-549,268 -1031,981 -1255,1856c-45,176 -81,364 -107,560c-14,113 -18,206 -18,485c1,365 11,476 66,725c120,541 372,956 699,1152c73,43 77,44 137,38c34,-3 102,-17 150,-31z" fill="#9a9a9a" id="svg_2"/>
   <path d="m59880,-26855c-439,-62 -817,-254 -1144,-580c-97,-96 -237,-261 -293,-346l-25,-38l-41,15c-59,21 -672,31 -887,15c-263,-20 -421,-55 -497,-110c-89,-64 -78,-136 36,-244c349,-329 1791,-848 3344,-1202c134,-31 135,-32 93,-120c-13,-27 -224,-372 -470,-765c-451,-721 -473,-752 -574,-822c-109,-75 -208,-110 -314,-109c-141,0 -239,72 -383,281c-252,368 -440,574 -606,664c-105,58 -232,41 -321,-41c-43,-41 -67,-83 -198,-347c-204,-413 -330,-703 -444,-1018c-36,-101 -46,-141 -46,-190c1,-103 55,-194 143,-240c61,-31 388,-161 584,-232c459,-165 1003,-304 1154,-293c125,8 136,18 426,399c242,317 530,681 707,896c101,122 169,215 205,280c171,311 337,487 499,527c52,14 75,14 133,5c193,-29 346,-129 420,-275l34,-66l50,6c95,12 209,81 317,192c100,103 168,245 168,352c0,41 8,60 65,147c134,202 264,499 314,716c154,664 -53,1349 -564,1863c-344,346 -776,577 -1250,666c-142,27 -491,35 -635,14z" fill="#9a9a9a" id="svg_3"/>
   <path d="m63902,-35477l-33,-4l8,-142c14,-251 8,-950 -11,-1187c-56,-723 -179,-1358 -357,-1852c-60,-165 -62,-150 18,-181c38,-15 71,-27 75,-27c12,0 157,456 201,635c109,435 173,856 219,1430c15,182 18,1158 5,1268l-9,67l-41,-2c-23,0 -57,-3 -75,-5z" fill="#9a9a9a" id="svg_4"/>
   <path d="m22980,-36917c-1098,-10 -2990,-44 -3850,-68c-107,-3 -433,-12 -725,-20c-531,-15 -1039,-30 -1320,-40c-82,-3 -343,-12 -580,-20c-236,-8 -486,-17 -555,-20c-216,-8 -383,-15 -770,-30c-563,-22 -711,-28 -970,-40c-63,-3 -414,-19 -780,-35c-1144,-52 -1241,-58 -1337,-79c-470,-103 -813,-523 -813,-995c0,-44 207,-3141 460,-6881c462,-6830 467,-6902 475,-6985c2,-25 7,-97 10,-160c4,-63 8,-131 10,-150c2,-19 6,-89 10,-155c4,-66 8,-131 10,-145c2,-14 6,-72 10,-130c3,-58 8,-134 10,-170c3,-36 7,-103 10,-150c7,-103 14,-206 20,-280c2,-30 9,-127 15,-215c12,-190 38,-572 45,-670c3,-38 21,-304 40,-590c19,-286 37,-551 40,-590c3,-38 21,-304 40,-590c19,-286 37,-551 39,-590c5,-64 88,-1299 101,-1495c3,-47 8,-110 10,-140c3,-30 106,-1554 230,-3387c124,-1833 231,-3365 239,-3405c39,-203 134,-379 285,-528c158,-158 348,-255 561,-289c44,-8 1185,-11 3548,-11l3482,0l0,-490l0,-490l11789,0l11789,0l6,2323c4,1277 6,4527 4,7222l-3,4900l-23,64c-53,148 -145,240 -293,293l-64,23l-4322,0c-2377,0 -4324,2 -4327,5c-2,3 159,1918 359,4255c200,2338 407,4763 460,5390c53,627 98,1154 100,1170c4,31 8,75 25,285c5,69 60,703 120,1410c61,706 110,1321 110,1366c0,477 -349,900 -823,998c-105,22 -1457,104 -2487,151c-63,3 -151,7 -195,10c-293,17 -1187,54 -1960,80c-477,16 -1351,41 -1775,50c-146,3 -346,8 -445,10c-247,6 -909,16 -1580,24c-507,7 -3894,10 -4465,4zm-4965,-1122c50,-22 91,-69 107,-122c9,-33 4,-275 -26,-1257c-21,-670 -42,-1234 -47,-1255c-12,-46 -60,-102 -110,-128c-38,-19 -83,-19 -2529,-19c-2446,0 -2491,0 -2529,19c-49,26 -97,81 -111,128c-10,38 -170,2202 -171,2320c-1,110 62,192 163,211c51,10 4547,118 4993,120c194,1 225,-1 260,-17zm3297,-55c540,-125 945,-545 1055,-1093c26,-133 24,-395 -6,-533c-117,-547 -530,-958 -1084,-1077c-104,-23 -416,-25 -522,-4c-570,112 -1013,564 -1109,1130c-20,121 -21,340 -1,457c75,436 352,811 745,1009c101,51 287,111 400,129c142,23 382,15 522,-18zm3950,0c796,-185 1257,-992 1011,-1771c-148,-467 -542,-822 -1033,-930c-114,-25 -364,-31 -485,-12c-207,33 -419,116 -582,229c-176,122 -340,308 -438,499c-105,204 -144,355 -151,589c-9,257 28,435 136,657c199,408 571,681 1035,759c125,21 373,11 507,-20zm9325,-720c66,-31 105,-86 111,-159c2,-29 -31,-419 -73,-867c-72,-769 -78,-818 -102,-868c-17,-36 -38,-62 -66,-80l-41,-27l-3192,0l-3192,0l-44,30c-26,18 -52,48 -66,77c-22,44 -25,79 -70,833c-50,852 -50,820 4,891c13,18 44,42 69,54l45,22l3103,58c1706,31 3183,58 3282,59c171,1 183,0 232,-23zm588,-2615c141,-65 156,-264 26,-356l-43,-30l-11391,-3c-10456,-2 -11396,-1 -11435,14c-85,32 -141,125 -129,215c8,61 54,128 106,156l44,23l11391,0c11053,0 11392,-1 11431,-19zm-11030,-3491c1729,-93 3309,-741 4605,-1890c173,-153 505,-487 651,-655c1013,-1165 1642,-2589 1808,-4100c19,-173 41,-449 41,-521l0,-34l-659,0l-658,0l-7,118c-105,1821 -986,3467 -2439,4556c-1382,1036 -3137,1433 -4842,1095c-793,-157 -1552,-474 -2220,-927c-792,-537 -1452,-1258 -1917,-2092c-613,-1099 -868,-2377 -727,-3635c131,-1171 581,-2243 1329,-3170c263,-325 609,-667 950,-937c231,-183 523,-379 779,-524l141,-79l0,-824c0,-780 -1,-823 -17,-817c-210,79 -727,333 -978,480c-1853,1088 -3154,2911 -3569,5001c-202,1016 -192,2084 30,3090c536,2433 2259,4448 4584,5360c980,385 2067,561 3115,505zm-1217,-3012c4,-31 6,-31 -138,-47c-419,-47 -866,-338 -1420,-926c-867,-919 -1380,-1947 -1532,-3069c-19,-138 -22,-209 -23,-501c0,-368 7,-468 55,-750c136,-795 477,-1492 994,-2032l116,-121l0,-206c0,-113 -3,-206 -7,-206c-5,0 -69,54 -144,119c-757,664 -1232,1663 -1320,2774c-17,218 -7,679 20,884c138,1061 598,2031 1381,2908c212,238 565,564 805,746c426,321 758,461 1090,456l120,-2l3,-27zm2182,-2073c597,-79 1101,-312 1560,-720c366,-326 675,-806 819,-1273c17,-55 31,-104 31,-111c0,-8 -39,-11 -141,-9l-140,3l-43,125c-90,265 -202,476 -381,715c-388,520 -948,880 -1563,1005c-243,49 -566,70 -794,50c-883,-76 -1695,-529 -2140,-1194c-133,-199 -248,-462 -288,-658l-11,-58l-96,0l-95,0l7,43c117,747 732,1458 1587,1836c320,142 701,238 1023,257c55,4 102,9 105,12c10,10 449,-8 560,-23zm13558,-3938c23,-15 51,-45 62,-67c20,-39 20,-55 20,-1160l0,-1120l-29,32l-29,33l-312,0l-312,0l-29,-33l-29,-32l0,-3826l0,-3826l34,-34l34,-34l302,0l302,0l34,34l34,34l-2,-872l-3,-873l-29,-37c-16,-21 -47,-47 -70,-57c-40,-18 -258,-19 -8431,-19c-8118,0 -8391,1 -8430,19c-50,22 -92,71 -100,114c-3,18 -4,2645 -3,5838l3,5806l28,36c30,40 55,56 102,68c17,4 3806,6 8421,5l8390,-1l42,-28zm-17688,-9307l0,-130l-3484,2l-3485,3l-31,30c-61,58 -61,132 0,177c66,48 -80,46 3578,47l3422,1l0,-130z" fill="#9a9a9a" id="svg_5"/>
  </g>
 </g>
</svg>